<svg height="468pt" viewBox="-34 0 468 468.16" width="468pt" xmlns="http://www.w3.org/2000/svg"><path d="m266.078125 24.320312c-19.039063 0-19.039063-24.320312-38.078125-24.320312s-19.039062 24.320312-38 24.320312-19.039062-24.320312-38-24.320312-18.960938 24.320312-38 24.320312-18.960938-24.320312-37.921875-24.320312c-18.957031 0-19.039063 24.320312-38 24.320312-18.957031 0-19.039063-20.160156-38-20.160156v464h304v-464c-19.039063 0-19.039063 20.160156-38 20.160156zm0 0" fill="#e6e7e8"/><path d="m264.078125 468.160156h-16c4.421875 0 8-3.582031 8-8 0 4.417969 3.582031 8 8 8zm0 0" fill="#e6e7e8"/><path d="m392.078125 420.160156h-128c-4.417969 0-8 3.582032-8 8v32c0 4.417969 3.582031 8 8 8h128c4.421875 0 8-3.582031 8-8v-32c0-4.417968-3.578125-8-8-8zm0 0" fill="#ffb655"/><path d="m392.078125 324.160156h-128c-4.417969 0-8 3.582032-8 8v32c0 4.417969 3.582031 8 8 8h128c4.421875 0 8-3.582031 8-8v-32c0-4.417968-3.578125-8-8-8zm0 0" fill="#ffb655"/><path d="m232.078125 420.160156h16c4.421875 0 8 3.582032 8 8v32c0 4.417969-3.578125 8-8 8h-128c-4.417969 0-8-3.582031-8-8v-32c0-4.417968 3.582031-8 8-8zm0 0" fill="#ff9811"/><path d="m392.078125 372.160156h-128c-4.417969 0-8 3.582032-8 8v32c0 4.417969 3.582031 8 8 8h128c4.421875 0 8-3.582031 8-8v-32c0-4.417968-3.578125-8-8-8zm0 0" fill="#ff9811"/><path d="m392.078125 276.160156h-128c-4.417969 0-8 3.582032-8 8v32c0 4.417969 3.582031 8 8 8h128c4.421875 0 8-3.582031 8-8v-32c0-4.417968-3.578125-8-8-8zm0 0" fill="#ff9811"/><path d="m256.078125 348.160156c0 39.765625-32.234375 72-72 72-39.761719 0-72-32.234375-72-72s32.238281-72 72-72c39.765625 0 72 32.234375 72 72zm0 0" fill="#ffd422"/><path d="m184.078125 52.160156h80v16h-80zm0 0" fill="#c6c5ca"/><path d="m184.078125 84.160156h80v16h-80zm0 0" fill="#acabb1"/><path d="m40.078125 132.160156h160v16h-160zm0 0" fill="#acabb1"/><path d="m216.078125 132.160156h48v16h-48zm0 0" fill="#c6c5ca"/><path d="m40.078125 164.160156h160v16h-160zm0 0" fill="#acabb1"/><path d="m216.078125 164.160156h48v16h-48zm0 0" fill="#c6c5ca"/><path d="m40.078125 196.160156h160v16h-160zm0 0" fill="#acabb1"/><path d="m216.078125 196.160156h48v16h-48zm0 0" fill="#c6c5ca"/><path d="m336.078125 420.160156h16v24h-16zm0 0" fill="#ffa733"/><path d="m368.078125 420.160156h16v24h-16zm0 0" fill="#ffa733"/><path d="m272.078125 420.160156h16v24h-16zm0 0" fill="#ffa733"/><path d="m304.078125 420.160156h16v24h-16zm0 0" fill="#ffa733"/><g fill="#ee8700"><path d="m192.078125 420.160156h16v24h-16zm0 0"/><path d="m224.078125 420.160156h16v24h-16zm0 0"/><path d="m128.078125 420.160156h16v24h-16zm0 0"/><path d="m160.078125 420.160156h16v24h-16zm0 0"/><path d="m336.078125 372.160156h16v24h-16zm0 0"/><path d="m368.078125 372.160156h16v24h-16zm0 0"/><path d="m272.078125 372.160156h16v24h-16zm0 0"/><path d="m304.078125 372.160156h16v24h-16zm0 0"/></g><path d="m336.078125 324.160156h16v24h-16zm0 0" fill="#ffa733"/><path d="m368.078125 324.160156h16v24h-16zm0 0" fill="#ffa733"/><path d="m272.078125 324.160156h16v24h-16zm0 0" fill="#ffa733"/><path d="m304.078125 324.160156h16v24h-16zm0 0" fill="#ffa733"/><path d="m336.078125 276.160156h16v24h-16zm0 0" fill="#ee8700"/><path d="m368.078125 276.160156h16v24h-16zm0 0" fill="#ee8700"/><path d="m272.078125 276.160156h16v24h-16zm0 0" fill="#ee8700"/><path d="m304.078125 276.160156h16v24h-16zm0 0" fill="#ee8700"/><path d="m184.078125 340.160156c-4.417969 0-8-3.582031-8-8 0-4.417968 3.582031-8 8-8 4.421875 0 8 3.582032 8 8h16c-.039063-10.132812-6.441406-19.148437-16-22.527344v-9.472656h-16v9.472656c-11.011719 3.878907-17.621094 15.132813-15.640625 26.640626 1.976562 11.507812 11.96875 19.910156 23.640625 19.886718 4.421875 0 8 3.582032 8 8 0 4.417969-3.578125 8-8 8-4.417969 0-8-3.582031-8-8h-16c.042969 10.132813 6.445313 19.148438 16 22.527344v9.472656h16v-9.472656c11.015625-3.878906 17.625-15.132812 15.644531-26.640625-1.976562-11.507813-11.96875-19.910156-23.644531-19.886719zm0 0" fill="#ff5023"/><path d="m56.636719 333.8125 2.777343-15.757812 31.515626 5.554687-2.777344 15.757813zm0 0" fill="#ff5023"/><path d="m87.914062 263.308594 11.316407-11.3125 22.625 22.625-11.3125 11.316406zm0 0" fill="#ff5023"/><path d="m153.980469 223.496094 15.75-2.777344 5.554687 31.515625-15.75 2.777344zm0 0" fill="#ff5023"/></svg>