<svg height="512pt" viewBox="0 -26 512 512" width="512pt" xmlns="http://www.w3.org/2000/svg"><g fill-rule="evenodd"><path d="m10 10h246v80.675781h-246zm0 0" fill="#ff6977"/><path d="m256 90.675781h-246v159.492188h246zm-82 40.339844h42v78.816406h-42zm-124 0h42v78.816406h-42zm0 0" fill="#f5828c"/><path d="m50 131.015625h42v78.816406h-42zm0 0" fill="#b0aeec"/><path d="m174 131.015625h42v78.816406h-42zm0 0" fill="#b0aeec"/><path d="m10 250.167969h246v40.335937h-246zm0 0" fill="#ff6977"/><path d="m256 290.503906h-246v159.496094h164v-98.15625c0-11.550781 9.449219-21 21-21s21 9.449219 21 21v98.15625h40zm-206 40.339844h42v78.820312h-42zm0 0" fill="#f5828c"/><path d="m50 330.84375h42v78.820312h-42zm0 0" fill="#b0aeec"/><path d="m174 351.84375v98.15625h42v-98.15625c0-11.550781-9.449219-21-21-21s-21 9.449219-21 21zm0 0" fill="#ffd89e"/><path d="m256 250.167969v40.335937h246v-120.082031h-246zm0 0" fill="#ffc059"/><path d="m502 290.503906h-246v159.496094h82v-78.15625c0-22.550781 18.449219-41 41-41s41 18.449219 41 41v78.15625h82zm0 0" fill="#ffd89e"/><path d="m420 371.84375c0-22.550781-18.449219-41-41-41s-41 18.449219-41 41v78.15625h82zm0 0" fill="#78d0a9"/></g><path d="m92 121.015625h-42c-5.523438 0-10 4.476563-10 10v78.816406c0 5.523438 4.476562 10 10 10h42c5.523438 0 10-4.476562 10-10v-78.816406c0-5.523437-4.476562-10-10-10zm-10 78.816406h-22v-58.816406h22zm0 0"/><path d="m216 121.015625h-42c-5.523438 0-10 4.476563-10 10v78.816406c0 5.523438 4.476562 10 10 10h42c5.523438 0 10-4.476562 10-10v-78.816406c0-5.523437-4.476562-10-10-10zm-10 78.816406h-22v-58.816406h22zm0 0"/><path d="m102 409.660156v-78.816406c0-5.523438-4.476562-10-10-10h-42c-5.523438 0-10 4.476562-10 10v78.816406c0 5.523438 4.476562 10 10 10h42c5.523438 0 10-4.476562 10-10zm-20-10h-22v-58.816406h22zm0 0"/><path d="m502 160.421875h-236v-150.421875c0-5.523438-4.476562-10-10-10h-246c-5.523438 0-10 4.476562-10 10v440c0 5.519531 4.476562 10 10 10h40c5.523438 0 10-4.480469 10-10 0-5.523438-4.476562-10-10-10h-30v-139.496094h226v139.496094h-20v-88.15625c0-17.09375-13.90625-31-31-31s-31 13.90625-31 31v88.15625h-24c-5.523438 0-10 4.476562-10 10 0 5.519531 4.476562 10 10 10h362c5.523438 0 10-4.480469 10-10v-279.578125c0-5.519531-4.476562-10-10-10zm-10 120.082031h-21v-5.046875c0-5.523437-4.476562-10-10-10s-10 4.476563-10 10v5.046875h-21v-100.082031h21v5.035156c0 5.523438 4.476562 10 10 10s10-4.476562 10-10v-5.035156h21zm-185 0v-100.082031h21v100.082031zm41-100.082031h21v100.082031h-21zm41 0h21v100.082031h-21zm-102 0v100.082031h-21v-100.082031zm-205 79.746094v20.335937h-21v-20.335937zm20 0h21v20.335937h-21zm41 0h21v20.335937h-21zm41 0h21v20.335937h-21zm-164-20v-139.492188h226v139.492188zm164-159.492188v-60.675781h21v60.675781zm-20 0h-21v-60.675781h21zm-41 0h-21v-60.675781h21zm-41 0h-21v-60.675781h21zm164 0h-21v-60.675781h21zm-205-60.675781v60.675781h-21v-60.675781zm-21 240.167969h21v20.335937h-21zm205 20.335937v-20.335937h21v20.335937zm-41 159.496094v-88.15625c0-6.066406 4.933594-11 11-11s11 4.933594 11 11v88.15625zm164 0v-68.15625c0-17.09375 13.90625-31 31-31s31 13.90625 31 31v68.15625zm82 0v-68.15625c0-28.121094-22.878906-51-51-51s-51 22.878906-51 51v68.15625h-62v-139.496094h226v139.496094zm0 0"/><path d="m461 220.457031c-5.523438 0-10 4.480469-10 10.003907 0 5.523437 4.476562 10 10 10s10-4.476563 10-10v-.007813c0-5.523437-4.476562-9.996094-10-9.996094zm0 0"/><path d="m95.003906 440h-.007812c-5.523438 0-9.996094 4.476562-9.996094 10 0 5.519531 4.480469 10 10.003906 10 5.523438 0 10-4.480469 10-10 0-5.523438-4.480468-10-10-10zm0 0"/></svg>
